<?xml version="1.0" standalone="no"?>
<!DOCTYPE svg PUBLIC "-//W3C//DTD SVG 20010904//EN"
 "http://www.w3.org/TR/2001/REC-SVG-20010904/DTD/svg10.dtd">
<svg version="1.0" xmlns="http://www.w3.org/2000/svg"
 width="400.000000pt" height="400.000000pt" viewBox="0 0 400.000000 400.000000"
 preserveAspectRatio="xMidYMid meet">
<metadata>
Created by potrace 1.14, written by Peter Selinger 2001-2017
</metadata>
<g transform="translate(0.000000,400.000000) scale(0.100000,-0.100000)"
fill="#000000" stroke="none">
<path d="M1705 3990 c-449 -72 -808 -254 -1126 -570 -231 -229 -391 -488 -489
-791 -22 -68 -43 -131 -46 -139 -3 -8 -8 -31 -10 -50 -2 -19 -10 -69 -18 -110
-25 -135 -20 -529 9 -695 37 -219 165 -534 288 -715 267 -391 616 -662 1039
-806 40 -13 82 -27 93 -29 11 -2 38 -9 60 -15 58 -15 92 -22 205 -41 36 -6
144 -12 240 -14 185 -3 276 4 433 35 33 6 61 9 65 6 3 -3 10 -2 16 3 6 5 51
21 101 36 145 44 262 94 415 177 51 27 197 128 265 183 398 319 667 802 730
1310 20 163 13 458 -15 585 -5 25 -12 61 -14 81 -8 56 -71 255 -110 349 -118
278 -305 536 -539 743 -181 160 -452 312 -690 387 -72 23 -139 45 -147 48 -8
3 -28 7 -45 8 -16 2 -63 10 -103 18 -82 16 -518 20 -607 6z m525 -15 c173 -24
239 -39 415 -98 214 -71 475 -222 639 -371 123 -112 203 -197 283 -301 59 -77
163 -240 163 -256 0 -4 -113 -120 -250 -258 l-250 -250 -761 761 c-418 418
-758 762 -756 764 22 22 376 28 517 9z m-988 -470 c124 -123 230 -231 237
-239 10 -12 -114 -140 -721 -747 -655 -655 -733 -730 -738 -708 -12 47 -8 346
6 449 17 131 66 329 106 429 16 42 30 81 32 86 12 54 134 271 215 384 54 75
199 240 255 291 22 19 44 40 50 45 27 25 84 72 110 90 16 11 34 25 41 32 16
15 168 113 176 113 3 0 107 -101 231 -225z m1125 -1115 c204 -204 378 -379
387 -389 16 -18 -3 -38 -379 -414 l-395 -396 -389 389 -388 389 391 395 c215
217 394 395 397 395 3 1 172 -166 376 -369z m1600 -365 c1 -158 -7 -245 -33
-385 -44 -231 -141 -482 -261 -674 -32 -50 -156 -219 -180 -244 -10 -10 -39
-41 -64 -68 -122 -129 -279 -257 -419 -339 -43 -26 -81 -48 -84 -49 -8 -2
-476 455 -476 464 0 4 339 346 753 760 l752 753 6 -34 c3 -19 5 -101 6 -184z
m-2465 -1240 c545 -545 730 -736 719 -741 -25 -11 -370 -13 -441 -3 -167 23
-157 21 -306 59 -150 39 -361 126 -468 193 -11 7 -45 27 -75 46 -144 88 -304
227 -436 376 -71 81 -225 296 -225 316 0 9 480 489 490 489 3 0 337 -331 742
-735z"/>
</g>
</svg>
